<svg xmlns="http://www.w3.org/2000/svg" viewBox="0 0 1200 680" preserveAspectRatio="xMidYMid meet" aria-hidden="true" focusable="false">
  <path fill-rule="evenodd" clip-rule="evenodd" d="M1137.0,538.2L1137.1,538.1L1137.2,538.0L1137.4,537.9L1137.5,537.8L1137.7,537.8L1137.9,538.0L1137.8,538.1L1137.6,538.3L1137.6,538.5L1137.4,538.4L1137.2,538.3L1137.0,538.3L1137.0,538.2ZM1138.9,533.3L1138.9,533.1L1139.0,532.8L1139.3,532.7L1139.5,532.6L1139.7,532.8L1139.5,533.0L1139.1,533.3L1138.9,533.3ZM1138.7,537.5L1138.8,537.2L1139.0,536.8L1139.2,536.8L1139.2,537.0L1139.1,537.2L1139.0,537.6L1138.9,537.7L1138.7,537.5ZM962.2,441.3L962.4,440.3L963.2,438.3L964.5,437.4L965.0,440.2L962.2,441.3ZM1015.6,323.6L1015.8,322.4L1015.6,321.3L1016.2,321.5L1016.6,321.8L1016.6,323.4L1015.6,323.6ZM748.1,227.5L748.5,226.9L749.4,226.5L751.0,227.2L750.1,228.2L749.1,228.5L748.1,227.5ZM764.4,209.6L765.9,209.7L765.7,210.4L765.4,210.5L764.4,209.6ZM680.6,165.6L682.0,163.8L682.7,163.8L682.9,164.1L683.0,164.4L683.0,164.8L680.6,165.6ZM686.4,178.0L686.6,177.2L687.1,177.1L687.9,178.2L687.0,178.6L686.5,178.7L686.4,178.0ZM649.2,187.7L649.5,187.5L650.2,189.0L650.0,189.2L649.6,189.1L649.3,188.6L649.2,187.7ZM646.7,194.5L647.4,192.4L648.0,193.2L646.7,194.5ZM659.2,148.0L659.3,147.1L659.4,146.8L660.5,147.1L659.9,147.8L659.2,148.0ZM554.3,215.9L554.7,215.5L555.2,215.7L556.8,218.0L554.3,215.9ZM583.3,215.4L583.6,215.2L584.3,215.2L584.8,216.4L584.3,216.8L583.3,215.4ZM593.1,212.8L595.3,212.4L594.7,213.1L594.3,213.9L593.2,213.2L593.1,212.8ZM602.2,208.2L603.9,207.0L605.5,207.4L605.7,207.5L605.9,208.2L605.2,209.2L604.8,209.6L602.2,208.2ZM545.1,91.0L546.7,91.1L547.0,91.8L546.9,92.3L545.1,91.0ZM1007.5,77.8L1013.2,73.5L1014.8,73.1L1016.4,72.8L1015.9,73.1L1014.8,73.5L1015.8,73.8L1016.6,73.9L1019.6,71.5L1022.0,72.3L1022.0,71.4L1021.5,70.5L1017.6,71.6L1021.4,69.8L1022.7,69.3L1023.6,70.1L1024.2,68.6L1036.1,61.2L1039.7,61.8L1040.7,63.1L1041.0,61.8L1040.3,60.6L1040.9,60.3L1041.9,60.3L1045.5,62.1L1050.3,62.8L1051.0,63.7L1052.4,64.5L1054.5,62.6L1057.6,63.0L1056.3,60.5L1057.7,60.6L1059.9,61.7L1057.5,59.0L1053.6,60.6L1051.9,58.5L1049.4,58.1L1046.3,60.0L1047.2,54.8L1049.3,52.3L1050.7,53.8L1052.5,54.0L1050.3,52.9L1051.5,51.8L1052.2,49.3L1049.6,51.5L1053.8,45.3L1055.9,44.5L1058.4,44.0L1064.8,40.5L1066.1,41.5L1065.9,39.6L1067.9,39.8L1068.6,37.7L1069.1,37.1L1070.4,37.2L1071.1,38.1L1070.4,40.0L1071.2,41.7L1071.9,42.8L1075.0,43.9L1075.4,44.7L1074.6,45.9L1074.1,46.5L1071.2,48.3L1074.4,47.4L1075.7,47.3L1076.2,47.8L1075.0,52.6L1071.4,55.0L1070.6,57.0L1072.0,56.0L1074.1,55.3L1074.4,55.6L1074.7,55.9L1074.9,55.2L1075.0,54.8L1077.5,56.1L1077.2,58.3L1078.6,56.3L1079.9,56.3L1081.1,56.6L1082.4,59.6L1082.1,62.2L1082.4,62.8L1082.8,63.0L1083.8,61.4L1086.0,62.8L1088.1,60.7L1090.2,60.8L1089.7,62.6L1089.5,62.9L1087.5,63.3L1090.3,64.7L1090.2,66.8L1089.1,67.1L1086.4,65.9L1088.4,68.5L1088.4,68.9L1088.2,69.2L1081.1,72.5L1079.7,73.8L1078.7,74.8L1078.1,77.1L1074.0,78.7L1070.7,77.5L1068.8,77.2L1066.7,77.5L1062.5,82.3L1062.4,83.1L1063.1,85.5L1061.0,90.9L1057.2,89.9L1054.7,90.8L1053.5,90.8L1052.0,90.6L1052.1,90.1L1052.7,89.6L1047.7,86.0L1049.9,89.2L1048.7,90.3L1047.1,89.6L1046.6,89.6L1047.3,91.2L1048.4,91.5L1049.2,92.0L1049.2,92.6L1048.9,93.8L1048.0,93.8L1051.8,96.2L1053.3,96.5L1056.6,95.4L1057.5,95.7L1058.3,96.1L1062.2,100.2L1063.1,102.7L1007.5,77.8ZM64.0,384.5L64.2,384.0L64.5,383.6L67.0,385.2L67.9,385.4L67.5,382.7L68.4,383.0L69.1,383.4L69.5,387.9L70.4,387.9L73.7,390.5L75.7,388.4L77.2,388.1L80.1,388.1L83.1,386.9L84.2,387.1L83.3,388.8L84.5,388.5L85.9,388.1L87.9,390.6L88.6,387.7L88.8,384.3L88.0,383.6L87.9,382.8L88.7,380.7L89.7,379.4L90.3,380.2L90.8,381.2L92.9,382.1L93.5,382.5L94.0,383.7L94.8,385.1L95.6,384.3L96.2,383.1L104.5,387.6L106.7,384.7L105.6,383.3L103.8,383.5L101.7,381.7L101.0,380.8L103.7,381.3L102.2,380.1L100.8,380.0L98.1,378.6L100.7,377.3L100.7,376.3L104.1,374.6L107.7,376.4L108.8,376.5L111.0,376.1L117.1,383.2L117.8,383.1L123.5,380.7L123.2,379.5L125.9,377.0L125.8,376.2L125.3,375.0L128.8,374.0L130.3,375.5L129.8,372.6L130.0,371.8L130.5,371.2L131.3,371.4L132.5,372.1L136.1,371.9L139.7,368.4L137.8,366.2L137.7,364.3L137.6,362.3L137.0,361.5L136.7,360.9L137.3,358.8L135.3,357.2L134.0,350.0L131.1,349.7L131.0,348.5L131.3,345.2L133.2,340.2L127.8,336.3L126.9,336.2L125.9,336.0L125.9,335.3L126.1,334.4L125.5,333.2L125.0,332.9L125.4,330.2L124.9,329.3L124.5,328.2L123.5,327.8L122.1,327.4L121.9,326.6L123.0,323.6L125.5,322.0L128.7,318.1L128.0,316.8L129.3,314.7L126.9,312.3L125.2,307.7L126.6,307.4L130.0,303.2L130.8,303.9L131.9,304.8L132.4,304.7L132.8,304.3L133.8,300.4L135.5,298.0L136.2,296.5L136.5,295.1L136.4,294.2L133.2,289.8L130.8,288.7L130.3,288.0L129.0,284.7L125.7,285.2L125.0,285.0L124.1,284.6L122.9,281.3L124.7,278.1L130.4,274.1L132.2,269.6L135.4,269.2L136.2,270.3L136.7,271.1L136.4,273.3L137.2,274.9L137.7,275.6L143.7,277.6L145.0,276.5L145.2,274.0L147.0,272.6L146.9,269.9L145.1,266.4L148.3,265.0L148.4,260.5L150.6,255.5L152.8,254.9L153.2,251.0L157.5,250.0L159.8,246.9L161.7,246.5L164.2,244.6L164.6,237.9L163.6,236.6L163.2,235.8L159.0,233.9L159.3,233.0L159.8,232.1L161.7,231.4L161.9,231.0L161.9,230.1L161.8,228.3L161.5,227.9L160.9,227.4L159.4,226.8L160.4,223.9L158.7,222.2L159.3,220.5L162.7,218.7L167.4,213.2L167.7,212.7L167.7,212.3L166.7,211.4L166.7,211.3L173.5,209.0L175.1,203.7L179.2,203.0L181.1,204.1L184.8,199.4L192.2,194.4L197.1,194.5L199.3,194.0L200.7,193.6L203.0,194.5L203.9,192.7L208.1,190.6L208.0,193.1L210.8,193.0L212.2,196.0L215.3,195.8L216.8,199.5L217.5,203.1L218.0,203.1L218.8,202.7L220.2,197.9L217.6,193.8L218.4,191.0L218.4,189.6L219.4,187.9L220.0,187.3L219.9,188.5L220.6,188.2L221.6,187.7L221.9,186.9L221.9,186.3L219.2,185.0L217.3,182.9L238.1,186.4L256.1,187.3L262.7,185.8L265.6,181.0L268.3,169.8L268.5,169.8L269.9,170.4L272.6,170.4L273.9,170.2L276.3,168.8L277.8,164.1L282.2,161.6L281.7,159.7L283.3,157.3L286.4,157.1L286.9,156.7L287.1,156.5L287.0,155.0L292.0,153.5L292.3,152.5L294.4,154.0L295.0,153.7L299.1,149.6L307.1,138.7L318.4,137.6L320.2,136.9L323.4,130.5L323.3,128.7L323.1,126.3L324.9,124.4L326.5,122.9L332.0,121.5L331.8,119.3L335.7,121.4L339.8,120.6L341.9,122.1L342.7,122.6L346.3,121.4L346.4,124.3L346.8,125.1L347.1,125.3L350.3,123.3L351.2,127.0L351.9,127.4L353.4,127.1L353.9,127.4L354.0,128.1L355.8,126.8L355.9,133.2L354.1,133.9L353.6,133.2L352.8,130.0L352.0,130.0L350.9,132.6L352.7,135.4L351.3,136.2L353.6,137.8L349.7,139.7L348.8,139.4L348.0,139.6L349.0,140.2L349.7,140.4L352.3,139.8L352.8,139.9L354.5,142.2L355.9,146.5L357.5,147.2L358.3,150.4L358.5,155.5L358.5,163.3L357.4,168.7L356.9,169.6L358.0,171.7L357.7,177.4L358.4,178.6L359.5,177.6L357.9,183.3L358.7,187.1L354.1,192.4L354.1,193.4L354.3,194.0L349.2,197.2L342.1,198.1L338.7,197.7L333.5,195.6L330.3,193.2L329.2,192.0L327.7,189.4L326.4,183.3L322.4,175.0L322.3,174.0L322.7,169.7L321.2,169.1L320.7,168.6L321.8,167.5L319.8,159.4L320.1,158.1L321.0,156.4L321.6,156.2L322.1,156.2L321.2,153.0L319.6,150.5L319.6,154.8L318.4,155.4L317.2,159.1L317.2,159.6L317.8,161.0L316.0,162.5L316.4,165.5L313.9,165.1L315.3,169.7L315.1,172.0L313.9,175.1L311.9,177.2L308.0,178.8L307.1,178.9L305.8,178.8L302.1,184.6L301.3,185.4L299.9,186.5L299.8,187.5L297.0,188.9L296.1,190.9L296.1,192.9L296.5,193.8L297.7,194.7L297.8,195.9L297.3,199.0L296.0,201.3L295.9,202.0L297.9,209.4L299.7,209.6L301.8,210.8L303.2,210.6L303.9,209.9L305.0,208.3L306.3,207.1L306.4,206.1L306.3,205.2L304.2,202.3L306.2,196.1L308.2,193.9L308.6,194.5L309.8,194.7L312.4,193.4L313.4,194.0L313.7,194.4L314.2,197.2L313.3,201.8L314.7,204.1L316.0,212.6L316.8,213.5L320.4,213.0L322.1,214.8L326.2,205.9L329.2,203.4L333.1,204.3L335.0,204.2L337.1,203.8L342.2,205.8L349.8,204.9L350.2,207.7L352.8,210.6L352.6,214.2L351.3,214.6L350.7,215.1L352.2,216.2L351.8,218.8L354.3,216.3L360.9,213.3L362.0,211.7L363.6,210.1L364.2,209.3L364.8,207.8L364.7,206.1L364.1,205.0L364.5,203.9L374.6,197.8L377.4,194.9L378.0,194.0L378.7,186.9L380.0,191.1L380.5,191.7L384.4,194.9L385.8,197.0L386.5,199.2L384.2,208.0L382.9,209.4L377.2,205.7L370.8,206.9L370.3,207.8L370.4,209.3L371.0,212.2L369.7,215.1L369.2,216.8L370.8,220.3L377.7,223.1L385.1,217.0L390.2,219.7L392.1,216.9L393.5,218.7L404.7,219.3L412.4,221.3L412.9,223.3L412.3,223.6L411.6,224.0L412.3,225.0L415.1,224.6L414.9,224.0L415.4,222.7L415.0,222.0L414.6,221.7L424.7,222.1L426.4,223.3L427.6,224.4L423.8,223.1L423.9,224.5L421.0,226.3L420.8,228.1L419.9,229.4L418.9,229.7L416.4,228.4L415.9,228.6L415.3,229.1L418.1,232.0L421.0,233.0L421.2,233.5L421.0,235.1L421.8,235.4L423.7,233.5L425.7,233.0L427.7,232.8L431.3,233.8L435.3,238.5L437.5,238.4L443.0,237.6L442.8,238.5L444.1,237.8L447.4,238.4L448.1,238.8L447.2,243.2L445.0,244.0L443.4,246.2L445.6,249.3L447.5,248.4L449.4,245.2L450.5,246.1L452.3,246.7L456.5,244.7L457.5,242.4L456.3,242.3L457.7,236.8L458.0,234.6L463.5,233.4L473.2,242.4L476.0,246.4L477.1,248.8L477.9,251.2L477.2,252.2L478.0,252.2L482.3,260.2L483.5,261.8L484.6,262.7L485.7,269.5L487.1,272.0L487.5,273.8L488.4,273.7L491.6,271.4L494.2,268.4L495.7,266.8L494.6,266.2L493.6,266.4L493.1,266.0L492.8,265.2L492.6,263.3L492.6,260.4L493.6,257.7L493.7,256.8L492.9,255.5L492.6,254.4L490.7,251.6L488.9,253.1L489.8,250.3L490.6,249.0L492.3,246.8L492.9,247.3L493.4,247.1L494.4,246.3L494.6,245.3L494.7,244.6L499.0,237.8L499.1,236.8L499.0,236.1L497.3,235.9L496.9,235.4L499.3,232.4L498.4,232.3L498.5,231.7L499.5,231.2L501.1,229.6L503.2,229.5L504.8,229.2L507.5,228.3L509.8,227.1L522.9,212.1L524.0,212.2L524.3,212.4L523.9,213.7L531.5,216.7L532.0,217.1L532.8,218.8L533.6,219.0L534.8,220.1L535.4,221.1L535.8,222.1L534.5,225.0L533.6,226.9L527.7,235.1L524.4,237.6L524.5,240.1L525.9,243.3L525.4,246.2L524.7,248.2L522.4,253.3L520.2,255.4L516.2,266.9L513.4,272.5L513.0,274.2L513.0,275.8L515.7,281.9L515.6,282.5L515.4,283.3L511.3,286.7L508.5,292.5L507.4,293.2L504.9,294.0L497.3,300.6L495.9,301.2L494.4,300.2L493.7,304.5L492.6,304.0L488.1,304.9L487.4,304.1L486.8,302.9L489.4,301.6L486.8,301.5L485.6,298.2L480.6,296.8L480.2,300.2L483.3,304.7L484.9,306.5L489.5,308.1L490.6,308.7L493.9,312.0L495.8,311.4L497.2,309.1L497.8,308.4L504.3,306.9L505.6,306.5L507.9,305.2L511.8,299.7L516.7,296.9L517.6,296.1L519.1,291.6L519.2,285.8L521.0,282.6L522.0,281.4L525.4,280.9L532.9,281.7L534.4,290.5L530.6,300.6L532.9,304.7L539.3,306.5L532.8,301.7L533.2,299.3L533.7,297.9L535.3,295.4L537.4,295.0L538.7,284.9L531.9,277.1L529.7,276.1L529.0,276.0L526.4,277.1L525.1,277.0L523.1,275.3L520.9,275.0L520.4,274.3L520.4,273.4L522.2,270.5L522.9,264.3L526.2,259.5L530.9,254.7L530.9,244.2L529.9,240.1L534.8,235.5L542.4,233.6L544.9,228.0L545.1,223.8L546.9,223.9L547.5,225.0L546.6,232.7L542.7,236.7L541.8,238.7L542.1,241.4L539.7,245.6L541.2,247.4L542.7,248.7L545.6,250.0L546.1,251.3L546.7,250.7L549.4,251.8L550.8,255.2L551.8,256.4L552.7,257.0L554.8,257.3L555.2,257.2L555.8,256.5L553.4,255.9L552.8,251.4L551.7,250.1L550.6,250.1L549.6,249.6L545.9,244.4L545.9,238.6L546.4,238.6L548.1,237.9L550.3,238.2L551.0,238.9L552.5,242.0L553.5,242.5L555.7,242.1L555.8,239.1L554.8,238.5L553.3,238.6L553.1,238.0L553.5,237.3L553.8,236.9L558.1,235.3L559.3,235.5L563.5,237.0L565.2,240.0L568.4,243.0L568.5,243.6L568.3,244.9L570.5,249.0L571.1,249.6L576.4,250.3L577.5,250.8L577.9,251.3L578.3,252.3L576.3,255.1L572.5,257.2L570.8,263.9L570.1,265.3L569.1,266.7L568.9,268.1L568.6,269.8L572.4,263.0L573.3,262.4L574.0,262.4L574.4,263.4L573.4,268.1L570.3,273.1L570.5,274.1L570.7,275.0L571.2,275.3L571.8,275.4L572.5,272.7L573.7,272.3L574.8,272.2L576.8,269.5L575.9,260.5L579.2,254.9L579.8,252.4L579.4,250.0L578.9,249.2L576.9,248.2L576.5,247.8L575.2,242.1L571.2,239.1L570.3,237.3L570.5,233.8L572.3,230.6L571.4,228.3L571.4,227.2L571.6,226.1L573.7,221.4L577.8,221.4L579.4,221.6L586.9,223.4L592.3,223.2L593.7,224.1L594.2,224.2L595.3,224.3L596.3,223.1L602.1,223.3L602.3,223.7L602.5,224.3L595.9,228.9L595.8,229.9L595.7,230.5L598.9,234.5L596.5,230.4L596.3,229.7L596.6,228.8L598.9,227.5L602.3,227.5L604.8,225.0L603.4,223.7L602.1,218.6L601.7,217.8L600.1,217.0L599.5,216.3L600.5,214.9L601.5,214.7L603.3,216.9L604.8,216.6L602.0,212.8L600.9,211.9L599.6,211.4L601.8,209.3L603.2,211.6L604.2,211.2L605.1,210.5L607.1,208.4L607.5,207.4L605.5,206.2L605.6,205.6L606.1,204.8L606.8,204.6L608.7,205.9L619.9,200.9L623.3,200.5L625.2,200.7L635.9,198.0L636.3,197.4L634.4,197.8L634.0,197.2L633.6,197.5L633.3,198.0L632.4,197.0L631.2,197.6L631.2,196.6L631.8,195.3L632.2,196.1L633.0,195.1L633.4,195.1L634.4,195.9L638.2,194.8L642.1,195.3L643.4,195.7L644.0,196.2L643.6,197.2L642.2,198.8L645.7,197.4L645.5,199.0L649.0,197.1L649.6,197.9L650.2,197.2L650.3,196.5L654.3,194.2L658.6,197.4L657.7,200.7L658.9,198.8L658.8,195.8L654.9,190.8L660.7,190.9L662.8,190.2L665.7,191.4L666.0,190.7L663.1,189.8L663.4,188.9L663.7,187.7L663.3,186.6L663.0,186.0L662.9,184.9L663.2,183.6L669.0,176.2L674.0,172.9L680.3,175.3L681.8,177.0L680.6,177.7L679.5,179.4L675.2,181.6L679.4,181.4L680.6,181.2L680.9,182.6L681.4,182.6L682.5,181.9L685.5,181.7L686.8,182.2L687.5,183.1L685.0,188.3L684.6,188.2L684.0,188.2L684.2,189.3L685.2,189.2L685.8,189.6L689.2,188.6L690.6,185.4L701.7,184.1L705.2,185.9L706.0,186.8L705.9,187.7L705.7,188.3L706.3,187.6L706.9,187.3L707.4,187.6L708.3,187.8L709.6,191.3L709.5,192.1L709.3,192.5L710.7,191.0L710.1,189.6L710.4,189.3L711.1,189.2L713.2,194.1L714.3,193.4L714.5,194.4L713.8,198.8L713.8,198.0L713.5,197.5L709.1,195.6L711.7,199.1L712.4,198.2L712.7,198.3L715.1,200.2L715.1,202.6L713.1,207.1L710.5,210.0L709.4,211.8L701.8,219.3L702.0,221.5L700.9,222.9L699.1,224.0L695.9,229.4L694.1,230.7L691.9,231.0L689.7,235.6L687.5,236.1L685.6,241.5L684.5,243.4L683.4,244.4L684.6,244.2L685.9,243.3L689.1,238.5L694.8,237.4L697.3,235.1L698.3,234.8L700.5,233.6L700.8,233.3L701.3,231.9L702.7,232.2L703.7,231.8L707.6,227.3L707.2,226.9L706.8,226.7L705.5,227.7L704.2,228.1L702.7,228.1L702.5,227.9L702.8,225.0L703.6,223.9L704.3,223.5L707.3,224.1L707.9,224.1L708.0,222.4L708.9,222.3L709.8,222.4L709.5,222.8L708.6,223.5L709.1,224.7L709.7,225.5L711.7,226.4L713.2,226.7L714.3,226.4L716.0,225.6L716.2,225.2L716.4,224.2L715.6,222.4L716.0,222.6L716.6,223.0L719.0,226.5L718.9,227.5L718.4,229.5L719.1,230.4L720.2,230.9L720.7,233.8L721.0,235.3L720.0,238.8L721.3,241.2L723.0,241.2L720.5,239.1L721.2,235.1L721.2,233.8L720.8,232.5L721.9,230.5L720.1,229.6L719.8,228.5L721.2,227.8L722.0,226.9L725.2,225.9L727.2,224.0L743.1,222.5L743.3,222.8L743.6,223.3L742.9,223.7L741.6,224.1L741.6,225.6L742.3,227.2L749.2,229.5L754.9,228.4L756.3,227.4L758.0,226.9L760.7,227.4L762.7,226.3L762.5,226.0L761.3,225.8L761.2,225.1L761.6,224.8L763.5,225.1L764.3,225.0L765.1,221.0L762.7,218.1L762.2,214.5L763.7,214.6L764.0,213.5L764.2,213.1L765.5,211.9L766.2,211.7L767.4,211.9L771.9,213.3L772.2,214.3L774.4,211.8L775.4,213.9L775.6,213.9L776.8,214.3L777.6,210.5L780.9,210.2L784.1,211.3L784.2,211.8L784.3,212.3L785.7,211.7L786.5,211.9L787.4,212.2L787.7,212.9L788.0,213.2L788.7,213.0L788.8,212.8L788.0,216.8L788.4,216.7L789.9,216.3L791.4,217.2L791.9,218.2L789.4,222.1L790.2,222.4L792.7,221.4L793.7,221.8L795.0,223.2L795.9,225.3L795.8,226.5L794.4,227.4L787.3,224.6L787.1,225.0L788.2,226.3L796.3,231.9L796.7,231.3L796.8,230.6L796.6,229.7L796.0,228.8L796.6,229.1L797.4,229.9L798.8,231.1L796.5,233.3L797.3,234.0L798.3,233.7L804.1,239.0L809.1,240.5L809.7,240.3L809.6,239.1L810.1,239.3L811.3,241.0L812.2,241.5L812.9,241.3L813.7,238.2L813.5,232.4L811.6,226.6L811.6,221.8L815.8,225.1L817.9,226.0L819.5,226.1L821.7,225.9L824.2,224.4L824.2,223.2L826.3,219.4L827.5,218.3L828.5,218.0L830.2,217.9L834.4,218.1L840.1,219.7L839.0,218.7L840.2,216.2L838.1,216.5L837.7,212.9L838.0,212.6L839.2,212.6L839.2,211.3L839.7,211.1L841.2,211.5L843.0,212.4L845.8,209.7L845.1,209.0L842.9,207.8L841.5,205.4L840.5,205.3L839.5,205.5L840.3,204.1L839.9,201.7L840.4,201.1L840.9,200.3L840.5,200.2L838.3,201.3L837.0,203.2L836.1,202.0L835.6,201.2L835.8,198.6L836.1,197.9L839.4,195.8L840.2,194.8L841.1,193.0L837.3,190.9L837.5,189.9L843.8,188.7L849.5,185.1L862.1,180.4L862.9,181.6L857.1,185.4L855.9,188.6L857.0,189.1L857.8,188.8L859.2,186.1L864.7,181.1L865.6,180.5L866.2,186.8L865.8,187.1L864.8,184.1L862.2,184.5L864.9,187.9L864.0,189.5L862.4,190.1L863.6,192.4L864.4,192.7L864.9,192.5L866.9,190.1L867.3,188.5L866.9,178.8L867.4,178.1L871.2,175.6L873.9,174.5L876.7,173.9L878.4,173.9L880.1,174.4L880.6,174.8L881.2,175.3L881.2,176.4L879.2,178.5L878.6,179.5L879.4,181.0L880.4,180.2L881.6,179.6L885.2,179.6L887.1,177.7L887.5,177.8L888.0,178.2L888.2,182.7L889.9,178.1L890.6,177.6L893.1,177.1L894.5,177.3L897.7,178.3L897.6,178.9L896.9,179.9L901.2,179.0L905.4,174.0L910.6,164.2L913.3,161.3L916.1,158.7L918.5,156.9L922.0,155.5L925.8,154.5L928.7,154.4L929.4,154.6L933.6,156.7L937.7,162.2L939.1,162.7L944.9,160.1L951.3,164.6L952.4,164.7L953.7,164.6L954.7,165.2L956.9,168.6L957.0,169.6L957.3,170.9L957.9,169.6L955.5,164.2L949.7,159.7L949.1,156.4L949.1,154.8L951.2,149.5L953.4,146.2L954.3,145.5L956.8,145.0L965.4,136.0L964.8,130.3L965.6,129.4L968.4,129.4L970.3,130.2L972.8,131.3L978.3,128.4L980.7,129.3L983.0,129.5L984.2,127.2L985.2,124.8L983.7,120.9L982.5,120.2L975.4,118.4L973.7,120.0L971.6,116.6L970.6,115.8L968.3,114.6L975.8,106.4L979.6,104.2L978.4,103.1L978.4,102.5L979.9,101.6L980.6,100.8L981.5,99.0L983.0,97.0L985.3,91.4L991.1,88.4L999.2,80.9L1000.7,81.0L1002.0,79.6L1006.8,78.3L1007.5,77.8L1063.1,102.7L1065.2,107.5L1065.8,114.4L1064.1,115.3L1062.0,118.1L1056.2,119.3L1054.4,120.5L1053.3,123.8L1056.0,120.2L1057.0,120.1L1058.5,120.1L1059.1,120.9L1059.1,121.5L1057.5,122.4L1056.9,124.1L1056.3,124.7L1053.7,126.0L1054.5,128.5L1053.0,136.6L1055.1,129.5L1054.5,126.5L1055.1,126.0L1055.9,125.8L1056.9,125.9L1058.1,126.2L1059.2,128.3L1058.9,125.5L1060.4,124.6L1060.6,123.9L1060.0,122.1L1060.2,119.8L1064.9,121.8L1067.6,121.3L1069.6,120.3L1069.9,119.7L1068.3,117.7L1072.4,117.8L1072.9,118.1L1074.0,118.7L1074.7,118.5L1075.2,117.9L1077.0,118.4L1079.6,119.4L1080.2,121.6L1081.0,120.6L1083.5,121.1L1081.6,119.8L1084.0,120.0L1084.8,120.4L1085.9,120.1L1088.1,118.9L1088.9,118.8L1089.9,119.2L1090.0,119.8L1090.5,120.5L1094.8,120.1L1096.0,120.7L1096.8,121.7L1097.7,123.6L1098.0,124.6L1098.9,125.3L1099.9,125.9L1093.4,131.3L1090.5,135.5L1088.1,133.9L1087.2,135.9L1088.6,137.1L1090.6,136.6L1090.2,138.3L1090.0,139.8L1090.5,142.1L1091.0,143.2L1091.3,156.2L1092.0,157.4L1092.3,158.3L1091.6,159.8L1091.4,160.9L1091.9,163.7L1090.7,164.7L1092.1,167.4L1093.2,170.2L1093.0,170.6L1091.4,171.4L1093.7,172.3L1093.0,173.4L1094.2,175.3L1093.9,175.9L1093.8,176.6L1094.4,177.2L1095.2,177.5L1096.9,193.8L1102.2,199.3L1101.1,200.4L1099.4,200.8L1093.0,200.0L1090.0,201.1L1089.3,201.0L1085.2,207.9L1083.6,215.0L1086.6,225.8L1086.3,226.4L1085.2,225.9L1084.4,225.5L1078.9,219.6L1078.2,220.6L1078.7,223.2L1078.3,230.8L1080.9,233.9L1080.5,234.6L1079.7,234.7L1077.7,234.2L1076.2,234.5L1075.7,234.9L1075.6,235.4L1076.1,236.9L1076.4,238.5L1075.4,237.5L1073.1,239.4L1074.4,244.1L1080.0,249.3L1081.2,252.0L1080.7,253.1L1082.2,253.6L1082.4,254.2L1083.4,260.0L1085.1,264.5L1086.7,266.8L1088.7,269.3L1090.1,269.9L1091.0,270.3L1094.6,269.4L1094.9,269.8L1095.3,270.1L1095.0,269.2L1093.6,267.5L1093.7,266.2L1098.5,264.2L1099.7,265.2L1100.2,265.9L1101.6,271.2L1107.6,275.8L1110.2,276.5L1112.3,274.6L1118.4,278.5L1119.0,282.8L1117.9,283.4L1114.7,283.1L1113.3,277.6L1111.8,280.3L1111.8,281.2L1112.0,282.4L1113.9,283.5L1113.6,288.1L1119.0,296.3L1120.7,297.7L1122.8,298.8L1128.3,300.0L1130.1,301.1L1130.3,306.7L1128.4,308.9L1126.6,309.2L1125.7,310.7L1125.3,312.2L1125.5,320.4L1129.0,326.1L1132.4,327.7L1133.3,329.2L1134.1,329.9L1136.0,330.2L1137.9,331.6L1137.5,332.1L1135.2,332.3L1134.0,333.5L1132.7,337.8L1132.4,339.7L1132.8,342.6L1130.1,342.3L1129.7,343.2L1130.4,344.2L1131.5,343.7L1132.4,343.9L1134.1,346.3L1134.5,347.3L1136.6,348.9L1137.4,349.8L1138.1,350.8L1139.8,353.9L1141.7,358.5L1142.8,371.0L1142.8,375.7L1142.6,376.8L1139.2,374.5L1137.4,374.5L1122.7,362.8L1117.0,360.7L1095.9,345.3L1085.7,337.2L1081.2,331.7L1078.5,328.3L1073.0,319.9L1072.0,310.5L1071.1,308.3L1069.8,305.6L1065.4,303.1L1065.3,302.6L1065.6,301.7L1067.5,300.9L1068.5,299.3L1067.1,295.7L1070.5,292.2L1069.9,291.1L1069.6,289.6L1069.4,281.3L1068.0,276.2L1065.4,271.3L1064.7,265.7L1063.9,263.0L1064.0,261.5L1064.4,260.4L1063.5,256.1L1062.4,252.9L1062.3,249.9L1060.0,245.0L1060.2,236.7L1061.7,234.3L1061.9,231.1L1059.8,231.0L1057.8,225.3L1057.2,225.0L1056.7,224.8L1055.5,225.4L1054.4,224.3L1053.6,223.2L1053.3,221.8L1046.8,215.2L1046.5,214.2L1046.2,211.3L1050.0,208.8L1049.6,208.4L1049.0,208.1L1049.1,207.6L1049.9,207.0L1049.2,206.7L1047.5,208.4L1045.8,209.3L1043.5,209.6L1042.5,210.1L1041.9,211.1L1039.9,217.5L1040.2,218.2L1047.9,226.7L1049.5,226.1L1050.1,226.2L1051.0,228.4L1051.0,228.8L1050.9,229.2L1049.9,229.0L1048.3,228.4L1047.8,228.9L1047.8,229.2L1048.3,229.8L1046.8,231.4L1047.4,233.7L1049.1,245.9L1049.4,247.3L1050.4,249.5L1049.2,251.2L1049.0,254.0L1045.3,248.9L1044.6,249.3L1044.1,249.8L1043.3,252.9L1042.9,252.0L1042.0,250.2L1040.6,249.3L1039.8,248.9L1037.2,243.3L1034.6,240.5L1034.1,240.7L1033.9,241.1L1033.5,245.0L1033.1,246.3L1029.0,246.1L1025.8,253.8L1024.0,254.8L1022.4,256.5L1022.5,257.6L1021.9,259.8L1022.2,264.0L1024.3,266.6L1024.6,272.6L1026.0,276.0L1026.4,277.8L1026.4,280.8L1026.0,285.1L1027.1,290.3L1028.7,293.4L1028.5,293.7L1028.5,294.7L1031.1,298.9L1031.9,299.0L1032.3,298.8L1032.7,298.3L1033.3,296.4L1036.4,295.3L1038.4,295.3L1039.3,296.3L1040.3,297.2L1039.4,297.9L1038.5,299.0L1038.4,300.2L1036.2,300.7L1036.1,301.5L1036.2,303.1L1035.3,304.7L1034.2,304.9L1031.9,304.7L1030.2,306.6L1031.0,308.5L1030.6,308.9L1030.1,309.6L1030.5,312.3L1030.3,312.8L1026.4,314.2L1025.9,315.4L1026.3,316.8L1024.6,319.4L1022.4,321.2L1019.0,319.9L1020.3,317.0L1021.8,316.0L1023.1,314.5L1024.0,312.3L1022.9,312.2L1020.3,313.6L1016.4,312.9L1015.2,313.1L1014.0,313.8L1013.2,314.5L1013.3,317.0L1011.0,318.3L1011.0,317.7L1011.4,316.7L1003.4,319.3L1002.2,320.4L1001.8,321.5L1001.5,323.8L1003.8,324.8L1003.4,325.2L1002.3,326.3L1001.0,326.3L1001.3,327.7L1002.3,328.4L1002.8,327.4L1003.6,327.4L1004.2,328.7L1003.3,329.9L1001.9,331.0L999.0,330.3L997.0,332.5L996.9,334.6L996.1,335.7L988.4,338.1L988.1,338.8L989.1,342.2L988.2,343.9L984.5,342.8L982.9,343.2L976.7,348.6L974.2,349.8L972.6,351.0L971.1,353.4L968.8,354.5L966.2,358.9L965.4,361.1L964.8,364.4L965.3,368.9L965.2,370.8L963.0,378.9L964.9,386.8L963.0,390.4L963.3,392.9L963.2,393.6L959.9,405.8L959.9,421.1L955.4,434.0L955.1,435.4L955.1,438.3L953.4,442.7L952.2,444.2L951.4,447.7L952.9,450.6L958.6,450.1L965.4,445.5L971.3,456.9L974.5,454.7L973.7,451.5L972.8,451.5L971.6,450.8L971.5,449.9L972.5,447.5L973.6,446.7L974.7,446.2L973.7,450.1L975.3,450.5L976.9,450.6L978.7,449.9L978.7,450.7L977.9,451.9L978.2,454.6L977.2,456.6L977.0,457.7L977.5,458.0L982.4,454.0L983.7,451.0L983.1,447.9L983.6,446.7L983.8,446.6L984.2,446.5L985.3,448.2L985.3,453.7L985.8,453.4L986.7,452.6L985.9,447.0L982.0,441.4L987.8,439.7L990.0,436.8L995.4,437.5L996.3,437.9L998.7,439.8L1003.1,441.0L1010.9,441.5L1012.0,442.8L1012.2,444.3L1011.8,446.1L1009.0,446.6L1008.6,446.9L1013.9,448.0L1015.6,450.4L1016.4,451.8L1016.5,453.9L1021.5,455.4L1021.8,457.5L1022.8,459.3L1022.1,465.5L1025.9,478.3L1027.7,481.8L1031.7,486.9L1032.2,487.1L1032.9,487.1L1033.0,490.2L1036.1,494.0L1039.0,502.1L1039.8,502.8L1040.4,502.9L1040.7,506.3L1042.4,509.8L1042.7,511.4L1042.6,513.3L1040.9,522.5L1041.2,526.9L1041.8,531.1L1040.9,537.6L1042.8,545.8L1042.7,558.9L1039.6,572.3L1038.3,582.0L1038.7,583.7L1038.6,585.0L1037.5,586.5L1036.9,588.0L1037.2,597.3L1036.2,600.5L1036.1,603.3L1029.2,617.1L1022.4,625.0L1021.2,625.2L1020.0,624.3L1019.3,624.7L1018.8,625.2L1016.6,624.9L1012.5,626.9L1010.4,621.8L1009.6,620.9L1009.3,622.3L1008.1,625.0L1007.4,625.7L1006.6,626.2L1006.4,625.0L1006.8,622.9L1006.4,622.9L1006.0,623.0L1004.8,624.3L1004.4,625.4L1002.5,636.1L997.7,637.9L999.9,639.1L1000.1,642.3L999.8,642.9L996.6,640.4L997.0,639.7L996.6,639.0L994.3,638.3L995.4,636.4L999.8,632.7L998.6,625.3L995.6,621.2L994.0,616.9L993.9,615.7L986.1,606.3L989.7,602.2L991.4,595.5L992.3,596.0L993.1,596.1L1003.9,594.4L1004.3,593.4L1004.9,592.1L1003.0,586.8L1004.6,584.0L1003.4,579.9L1004.1,578.2L1003.3,575.4L1004.0,573.1L1002.3,569.7L1000.8,559.5L999.2,557.3L999.5,555.1L1001.3,552.9L1001.5,548.8L997.5,545.5L997.2,542.4L996.7,541.9L995.3,541.4L992.5,542.0L991.8,542.6L989.2,545.6L987.1,549.7L985.6,550.5L984.1,551.1L981.3,555.4L980.8,559.6L974.7,563.3L966.9,566.6L962.7,563.2L961.2,558.4L957.2,555.8L956.8,554.7L956.7,553.2L955.5,552.2L953.7,553.0L952.1,553.3L942.6,549.1L938.7,551.1L936.0,550.8L934.1,549.3L927.9,552.5L925.9,552.5L924.6,552.1L922.4,550.9L921.5,550.0L920.8,548.6L920.4,547.2L920.3,544.9L918.0,544.3L917.2,543.8L914.8,538.8L909.1,534.5L905.7,529.1L900.7,524.0L896.7,518.3L892.5,515.8L892.0,513.8L889.8,512.4L888.9,512.5L888.4,512.6L886.9,510.7L881.2,510.2L879.3,512.0L866.9,509.7L863.1,511.0L861.7,512.3L860.0,513.3L856.5,514.3L845.8,521.0L840.4,530.8L840.2,531.9L840.8,533.1L844.9,532.2L846.3,532.6L849.3,539.4L849.2,541.4L845.4,548.6L843.7,563.7L842.3,568.9L844.6,570.3L844.9,572.2L844.7,573.7L838.0,579.2L836.1,582.1L833.8,585.6L827.4,585.5L816.2,582.1L811.9,585.1L810.6,585.3L809.1,585.5L801.4,581.8L797.1,582.1L791.0,587.6L787.7,591.5L787.3,593.3L787.2,594.5L786.0,595.5L785.0,596.4L784.0,596.8L782.0,596.8L780.9,597.3L778.3,599.2L771.2,601.4L765.6,605.7L762.6,604.9L761.6,605.1L760.5,606.0L750.7,604.8L743.7,605.6L737.6,601.5L736.6,597.0L729.9,597.0L724.4,592.6L719.6,593.1L711.4,591.2L702.7,594.4L699.1,597.0L694.8,597.5L691.6,596.7L690.8,595.7L690.1,595.3L685.4,594.0L681.5,591.1L681.7,589.0L680.7,587.3L679.5,579.2L674.3,577.5L673.3,577.5L672.5,577.8L663.9,573.6L658.8,573.2L657.5,572.1L656.9,571.4L654.0,570.5L649.2,567.5L646.8,572.3L644.1,573.6L642.7,576.9L641.0,577.7L638.9,583.8L640.6,590.2L642.9,592.0L642.6,595.6L640.0,600.0L635.9,601.5L633.6,604.1L632.1,604.2L630.0,601.7L623.5,601.1L621.2,599.5L619.9,600.0L618.5,599.1L615.8,600.5L611.8,599.9L610.2,598.1L607.1,598.1L604.8,594.9L604.2,589.6L593.3,587.9L592.0,585.0L591.2,584.8L590.5,584.8L588.9,586.1L586.6,583.1L584.7,585.4L581.0,585.1L576.9,588.2L573.0,588.5L569.1,591.0L563.0,592.2L562.5,592.5L562.1,593.8L558.7,594.5L558.3,597.4L555.6,598.7L554.6,598.5L554.1,598.2L552.5,599.9L551.5,600.2L550.6,599.0L549.7,600.3L547.8,599.4L543.5,599.2L542.2,602.1L541.2,602.5L540.8,602.9L534.9,603.6L534.0,603.3L533.9,602.3L533.5,601.1L531.4,599.6L529.4,595.0L528.6,594.7L530.0,592.9L530.1,592.1L529.7,591.5L524.1,594.8L515.3,591.2L514.0,586.5L514.4,583.9L511.3,580.9L508.7,579.8L507.1,570.8L502.4,566.2L501.6,566.0L500.6,565.8L499.8,566.1L498.9,566.9L498.0,566.7L496.5,566.3L493.4,568.2L483.9,565.5L484.1,562.1L481.2,561.1L482.7,557.9L481.7,557.7L481.2,557.5L481.1,556.6L480.8,555.9L480.2,555.7L479.5,555.3L476.4,556.2L475.2,559.7L473.2,559.7L472.1,560.2L471.6,560.4L471.4,560.8L471.1,561.6L470.4,561.1L468.9,549.0L463.2,518.0L455.3,502.9L455.5,500.8L457.4,501.6L460.4,497.7L449.2,499.2L448.9,499.2L447.0,498.8L445.8,500.3L444.1,501.0L442.3,501.4L440.5,500.8L438.9,501.3L436.3,502.2L434.6,504.2L434.2,503.4L433.9,502.4L432.9,501.5L431.2,500.7L430.1,500.5L429.2,500.6L427.1,501.6L426.5,501.7L426.4,499.1L427.2,497.5L428.6,496.3L430.2,496.0L431.5,495.5L432.2,494.7L432.5,494.0L432.2,493.6L431.8,493.3L429.3,494.1L428.4,493.8L428.0,493.7L427.2,493.0L426.3,490.4L425.0,489.6L424.1,489.1L423.0,490.9L422.4,491.0L421.5,491.2L422.1,488.4L421.7,484.8L419.5,485.9L413.8,484.3L412.2,482.6L415.4,477.4L416.3,465.7L414.2,465.2L411.1,465.8L407.0,460.5L405.2,459.4L403.2,458.2L398.5,459.1L395.7,458.5L395.5,459.3L395.2,460.2L394.6,460.8L394.0,460.9L381.5,458.8L370.8,455.2L368.2,455.7L365.7,457.5L365.2,456.7L364.9,456.0L363.8,455.9L362.5,455.4L361.6,454.8L361.3,454.2L355.4,453.6L349.9,451.6L349.2,451.7L348.5,451.9L344.9,450.4L344.3,450.6L343.4,450.6L339.8,448.6L338.5,448.9L336.4,446.7L334.9,444.7L333.9,444.6L328.7,448.7L329.2,449.8L330.1,450.9L332.1,451.6L332.2,452.2L332.1,452.7L329.1,452.3L327.6,454.2L330.6,457.2L331.0,458.4L332.4,460.5L332.5,461.5L332.1,462.2L331.4,462.5L330.7,462.5L326.7,459.1L325.1,458.2L323.8,457.7L319.2,460.3L318.1,465.8L314.0,466.7L312.6,465.9L311.9,465.8L307.2,466.3L308.6,470.2L308.3,471.3L308.2,472.2L313.6,479.5L313.8,480.1L314.2,482.0L313.6,483.4L309.0,487.3L307.0,487.7L304.0,487.3L299.7,484.8L298.2,480.7L293.9,482.9L293.1,483.1L290.9,482.5L291.4,480.5L287.5,476.5L286.5,468.9L282.7,465.8L279.8,466.9L278.8,466.7L277.8,466.2L277.3,464.8L277.1,462.9L276.0,461.6L272.2,460.5L272.0,459.9L271.6,459.3L269.5,459.4L267.3,459.5L266.4,460.2L265.4,460.7L261.4,460.2L260.4,459.2L259.6,457.3L257.4,448.9L256.6,448.7L256.0,449.1L254.1,453.3L252.2,454.3L252.0,454.0L252.0,453.2L252.7,451.9L253.5,450.5L253.9,445.6L252.1,435.5L246.5,431.0L246.2,426.1L244.3,425.3L241.4,425.4L239.5,425.2L237.5,423.7L237.9,420.6L236.1,417.3L227.8,419.2L223.1,418.4L221.7,417.7L220.3,416.9L216.6,418.5L210.4,418.1L209.2,416.8L204.5,425.1L203.7,425.5L203.0,425.5L201.3,425.1L199.6,424.6L199.2,423.6L200.2,413.5L199.8,412.4L199.0,411.8L196.4,412.1L192.9,414.7L191.4,414.6L189.5,414.6L187.1,415.7L184.6,417.4L183.0,418.8L182.3,422.8L176.2,424.4L173.0,426.3L171.7,428.5L172.7,433.3L169.9,436.7L169.1,440.5L170.1,440.8L171.2,441.1L175.4,447.0L171.7,463.2L171.1,463.7L170.4,463.4L168.4,460.5L167.9,460.5L167.4,460.8L166.9,461.4L166.7,462.1L169.3,470.1L169.0,470.7L167.9,470.0L167.3,470.5L166.6,470.7L162.4,469.1L160.8,471.6L159.3,469.4L155.9,469.5L154.7,469.3L153.7,468.7L151.3,467.7L150.8,467.2L150.5,466.5L149.8,466.5L148.9,467.2L148.6,464.8L147.0,467.3L145.5,467.4L144.0,468.6L142.9,469.2L136.5,471.7L136.4,471.1L136.5,470.4L130.9,471.7L129.7,473.6L130.6,475.2L131.0,476.5L130.8,481.3L126.3,488.6L130.0,486.2L131.2,486.3L126.2,489.4L120.8,494.4L120.9,497.2L120.5,498.8L119.3,500.4L118.9,506.8L117.3,513.6L117.8,516.3L113.8,517.6L109.4,516.6L107.3,517.2L105.2,517.8L101.3,512.7L102.3,508.7L102.1,502.3L100.5,501.0L100.4,500.7L100.9,499.9L97.9,493.4L97.1,489.0L100.8,486.4L98.2,483.2L98.4,480.8L98.3,480.1L96.9,476.9L96.6,476.8L94.5,477.6L94.9,476.0L94.8,475.3L94.4,474.6L93.9,474.0L87.5,471.5L86.5,470.3L86.3,469.6L86.4,469.1L88.1,468.1L85.4,459.9L85.4,458.5L85.8,458.0L85.5,456.7L84.9,455.3L84.0,454.6L83.3,453.8L82.9,451.9L79.7,449.2L76.5,445.0L76.3,443.4L76.1,441.9L74.6,439.2L73.2,433.9L69.9,429.4L66.9,429.4L68.1,410.1L65.9,404.3L67.0,398.8L65.5,397.9L64.7,396.7L64.5,395.8L65.9,390.7L65.3,387.5L64.0,384.5ZM507.9,71.6L513.3,74.4L514.3,74.3L515.3,74.7L517.2,77.0L517.1,78.7L516.4,79.4L516.2,79.3L515.3,77.8L515.4,76.4L515.3,76.2L513.1,76.8L509.1,75.8L509.8,74.3L508.8,73.9L507.9,71.6ZM508.7,80.0L508.9,78.2L511.9,78.5L513.0,78.5L515.2,79.5L515.3,79.7L515.2,80.5L516.3,81.4L519.3,78.8L520.2,78.9L523.5,81.0L523.8,85.0L521.8,84.7L520.9,84.9L519.2,83.7L517.9,83.1L516.3,83.7L514.7,82.3L514.3,82.3L513.6,82.5L513.9,83.5L513.1,84.5L512.4,83.3L511.1,83.9L510.9,83.0L509.5,82.6L511.2,81.5L508.7,80.0ZM467.3,171.2L467.9,169.2L468.7,168.7L468.8,165.9L469.2,164.9L474.0,165.0L480.6,161.4L484.0,162.5L482.9,160.6L483.0,160.0L483.2,159.5L489.2,157.9L489.1,157.5L489.1,156.8L487.9,156.1L487.9,155.1L488.1,154.7L488.3,154.2L489.1,154.0L489.7,154.0L490.0,154.4L490.6,156.4L492.9,155.4L493.7,154.1L494.4,154.1L494.8,154.2L495.4,154.9L496.2,156.0L498.2,154.4L499.9,154.1L500.0,153.7L500.4,153.2L504.6,152.7L509.5,153.7L510.4,152.9L511.2,152.9L513.2,154.6L515.7,152.6L521.3,156.7L523.7,156.9L527.3,157.8L533.1,157.7L536.7,155.7L541.9,155.5L542.3,155.6L543.4,156.5L544.6,158.0L545.0,159.1L545.1,160.5L545.0,160.9L543.8,163.3L539.5,165.7L530.9,166.2L508.8,164.8L504.7,166.4L502.7,166.2L502.6,167.9L500.0,168.8L499.5,168.7L498.7,168.2L497.3,169.7L497.1,169.5L496.5,167.6L494.1,169.7L493.5,169.7L492.4,168.3L490.4,171.9L489.0,172.6L485.6,172.4L483.5,175.3L482.5,173.4L481.8,176.2L477.1,178.2L475.4,178.1L474.6,177.6L471.9,174.6L471.2,173.4L470.8,171.9L467.3,171.2ZM440.5,185.0L442.0,181.3L444.1,179.1L445.4,178.3L445.9,178.2L446.9,178.2L447.3,178.3L447.7,179.1L448.4,179.7L451.4,178.8L456.0,175.3L455.3,174.5L455.6,173.1L458.1,172.6L460.0,173.7L461.0,171.0L462.8,170.1L464.8,170.4L466.3,171.8L469.4,172.2L473.6,178.3L469.1,182.8L467.2,182.2L465.3,183.9L464.5,183.7L464.1,183.9L461.6,188.2L458.1,191.0L455.3,204.5L456.7,212.7L455.4,213.0L453.5,213.0L451.9,210.8L451.6,209.0L450.9,208.8L451.1,211.2L450.6,211.4L450.3,211.2L449.9,209.2L448.1,208.6L448.4,207.4L446.3,206.3L445.6,205.7L444.9,205.0L444.6,203.6L444.2,203.8L443.8,204.2L440.8,198.0L441.4,198.0L442.1,198.3L443.9,196.4L446.2,197.4L446.1,193.3L445.7,192.8L445.3,192.6L447.1,190.3L447.0,190.0L444.8,189.2L444.0,188.3L443.4,187.2L442.0,187.0L440.9,186.4L440.6,185.8L440.5,185.0ZM633.2,136.6L633.8,135.9L634.5,135.2L635.7,135.1L636.7,134.8L639.1,131.8L637.6,131.9L637.1,131.7L638.8,129.3L644.2,127.9L644.9,127.3L645.3,126.3L647.2,126.3L649.8,130.4L653.0,133.0L653.0,133.8L650.7,134.8L650.4,135.8L651.5,138.5L651.1,139.1L650.7,139.5L642.4,140.5L641.6,141.1L640.1,141.8L635.1,139.1L633.4,137.8L633.2,136.6ZM636.9,148.2L643.7,141.0L644.6,141.9L645.3,141.0L651.9,140.5L653.2,142.4L651.9,145.8L653.3,144.0L654.0,144.4L654.2,144.2L655.1,142.1L655.9,142.2L657.3,142.6L659.3,144.7L658.4,151.6L658.0,152.3L656.3,152.0L658.9,154.7L659.2,155.9L659.3,156.5L657.9,157.9L657.6,158.2L655.5,158.4L654.1,158.7L651.2,158.1L648.8,155.9L645.1,155.3L644.6,154.2L642.8,154.6L642.1,154.1L641.7,153.6L640.5,149.8L636.9,148.2ZM657.0,169.0L659.6,164.9L660.9,159.3L662.8,158.8L663.0,154.3L664.9,151.1L667.0,152.4L666.7,151.7L666.7,150.9L667.4,150.1L669.7,151.7L667.7,158.0L669.4,155.0L672.2,153.6L675.2,157.6L677.0,157.7L677.9,162.0L676.3,164.1L676.0,164.3L670.0,165.8L669.3,166.8L663.7,166.9L658.9,170.1L657.0,169.0ZM801.6,158.6L804.4,153.3L811.0,155.4L812.4,155.1L814.3,156.4L814.6,156.4L815.1,156.1L813.0,151.7L813.3,148.6L819.4,149.1L820.5,149.0L821.5,148.5L822.7,146.8L831.0,146.6L830.2,147.9L830.2,149.3L831.7,150.8L830.8,155.6L827.3,156.8L825.6,156.2L824.9,155.8L824.0,155.2L822.9,154.0L821.5,150.3L820.2,151.1L819.6,152.0L819.1,152.9L821.0,155.1L821.7,155.8L822.3,156.2L825.3,157.9L828.4,158.6L827.5,162.0L824.3,161.1L819.5,166.9L816.5,166.8L817.5,171.0L817.3,171.6L816.9,171.9L812.2,172.4L804.6,168.9L804.1,168.2L804.0,167.7L804.8,167.5L805.2,167.2L803.4,164.8L802.1,162.3L802.2,161.7L803.6,161.2L802.7,160.7L801.7,159.8L801.6,159.1L801.6,158.6ZM834.2,143.6L834.3,143.1L835.6,143.4L836.3,144.3L837.0,144.8L838.6,142.3L841.8,140.1L844.0,141.7L848.9,137.8L851.3,138.0L851.7,136.5L853.2,139.3L851.6,144.1L846.2,147.6L843.5,147.4L842.0,148.1L841.5,148.2L836.5,148.5L834.2,143.6ZM971.7,62.4L971.7,61.8L979.3,65.2L979.3,65.8L979.9,67.4L979.2,71.8L975.0,70.5L974.3,69.3L973.7,68.7L971.7,62.4ZM1009.2,423.9L1010.7,422.8L1010.5,420.4L1011.2,420.3L1015.0,422.5L1017.8,427.2L1021.8,430.2L1024.5,431.9L1028.3,435.6L1030.7,438.9L1031.5,440.1L1032.7,444.3L1035.0,447.7L1036.6,449.3L1040.8,453.2L1042.1,453.4L1042.9,453.9L1056.5,466.8L1070.8,477.6L1076.5,479.4L1077.1,479.9L1078.8,482.1L1075.1,480.0L1067.9,478.5L1064.8,479.5L1062.1,481.8L1061.2,483.0L1060.7,484.6L1066.5,501.9L1067.9,504.5L1069.3,506.3L1073.4,508.8L1076.2,509.2L1083.3,514.2L1084.1,513.4L1084.6,513.1L1085.3,512.9L1086.0,513.1L1090.3,517.4L1092.0,522.5L1086.0,516.8L1083.7,517.8L1081.7,519.0L1079.6,518.5L1079.0,518.7L1078.7,519.3L1078.3,520.6L1078.5,522.2L1081.2,532.2L1080.3,532.0L1079.4,531.7L1074.4,526.9L1070.2,516.9L1065.6,511.7L1063.7,505.0L1060.9,501.7L1054.6,497.4L1049.6,485.4L1044.0,477.0L1039.6,472.2L1037.5,466.7L1035.5,463.8L1032.7,461.8L1031.3,461.1L1027.2,459.8L1027.4,459.4L1027.4,458.7L1026.2,458.4L1025.0,457.6L1022.0,453.2L1018.9,445.5L1013.6,437.8L1013.8,436.4L1014.8,435.0L1015.1,434.9L1016.9,435.2L1017.3,435.0L1017.6,434.6L1018.0,433.6L1017.6,432.2L1016.6,431.9L1016.4,430.9L1017.1,429.9L1014.4,426.2L1011.3,424.9L1009.2,423.9ZM971.7,61.8L972.7,57.4L975.1,54.4L980.4,52.2L981.1,52.3L981.8,52.7L982.6,54.7L981.5,62.9L979.3,65.2L971.7,61.8ZM305.7,189.7L306.9,186.8L308.3,187.3L308.4,187.9L308.1,188.5L305.7,189.7ZM353.3,203.8L354.3,203.5L353.9,205.2L353.6,205.2L353.3,203.8ZM440.3,195.8L441.2,192.4L440.3,189.6L440.6,189.1L441.2,188.9L442.8,190.3L443.4,189.9L443.3,193.4L440.3,195.8ZM1156.4,263.0L1160.7,261.3L1163.1,261.3L1164.0,261.5L1156.4,263.0ZM927.7,148.8L928.2,148.5L929.0,148.6L929.9,148.9L929.9,149.3L929.3,149.7L928.7,149.7L927.9,149.0L927.7,148.8ZM946.5,157.3L948.5,158.2L949.2,160.6L954.5,163.8L955.0,164.9L954.4,164.1L954.0,163.8L951.5,164.0L947.8,161.4L946.5,157.3ZM847.1,120.7L847.4,120.1L847.6,120.1L848.4,121.2L847.2,121.3L847.1,120.7ZM830.2,126.1L830.4,124.7L832.0,122.6L832.4,124.6L830.3,126.6L830.2,126.1ZM833.3,216.6L836.0,214.1L837.3,214.8L836.9,216.5L835.3,216.4L834.7,217.2L833.3,216.6ZM682.1,166.6L682.7,166.1L685.9,165.5L686.1,165.5L686.6,166.2L686.4,166.9L686.0,167.3L682.1,166.6ZM705.2,184.9L707.1,184.6L707.9,186.9L705.2,184.9ZM641.1,194.1L641.2,193.4L641.5,193.0L642.3,193.6L645.0,193.0L646.0,193.4L646.3,193.7L644.9,195.6L641.1,194.1ZM641.8,182.6L646.6,180.3L646.7,181.0L646.7,181.4L645.3,183.2L641.8,182.6ZM619.3,177.2L619.7,176.6L620.0,176.2L621.3,176.3L621.4,176.7L621.3,177.1L620.6,177.9L619.3,177.2ZM543.2,219.8L543.7,219.1L544.1,218.7L545.1,218.7L547.1,220.6L546.0,220.7L544.7,222.9L543.2,219.8ZM550.7,216.0L551.1,215.4L552.2,214.9L553.9,214.9L554.3,215.3L552.9,216.4L551.5,215.9L550.7,216.0ZM585.3,216.5L585.7,216.0L586.9,216.0L588.3,216.8L588.6,217.3L587.6,217.8L586.6,217.1L585.3,216.5ZM489.0,254.6L491.1,253.9L490.9,254.5L489.9,255.5L489.1,255.0L489.0,254.6ZM493.9,239.0L493.9,238.3L494.1,237.4L494.9,235.9L495.2,235.5L495.4,235.4L495.5,235.5L495.0,236.4L494.3,238.8L494.1,239.4L493.9,239.0ZM482.6,301.6L482.6,299.0L483.0,298.6L485.7,300.8L484.2,303.4L483.1,303.1L482.6,301.6ZM514.3,86.0L514.4,85.7L515.8,85.7L516.6,86.6L516.4,87.0L514.6,87.5L514.3,86.0ZM514.2,88.6L517.1,89.2L516.9,91.9L516.1,91.1L514.6,89.9L514.2,88.6ZM524.0,79.3L524.2,78.3L525.6,79.0L524.5,79.7L524.1,79.5L524.0,79.3ZM528.3,95.9L529.5,95.3L529.8,95.6L529.8,95.9L528.3,95.9ZM527.2,91.1L528.3,89.9L529.1,91.6L527.9,92.5L527.2,91.1ZM536.4,105.6L536.9,105.0L537.2,105.0L539.0,105.2L539.5,106.1L539.1,107.2L538.3,107.2L537.1,107.0L536.4,105.6ZM539.2,93.2L539.5,91.8L542.3,92.2L543.1,94.0L542.5,96.7L541.9,97.1L541.3,96.8L540.4,96.3L539.2,93.2ZM150.4,470.9L151.0,469.5L151.5,468.9L152.1,468.8L151.4,470.1L150.7,470.8L150.4,470.9ZM400.3,205.3L402.1,202.0L404.6,199.6L409.0,198.9L409.6,199.1L410.7,200.1L411.8,205.2L412.0,206.4L411.6,207.6L410.7,208.7L410.1,209.0L409.7,208.9L410.2,208.1L410.3,207.6L405.7,209.0L403.0,208.3L401.5,207.7L400.4,207.0L400.3,205.3ZM551.6,102.6L554.0,101.9L556.8,103.1L558.4,101.5L559.2,101.6L560.5,104.3L559.9,105.7L558.0,106.3L556.5,106.4L553.0,105.2L552.5,104.9L551.6,102.6ZM533.6,100.9L535.4,96.9L536.4,97.9L538.7,99.7L539.9,102.3L537.5,101.1L534.4,102.3L533.6,101.2L533.6,100.9ZM541.2,100.8L542.8,98.7L544.5,97.9L546.2,99.5L549.6,100.4L550.7,101.9L549.1,104.1L545.1,104.5L544.3,103.8L543.6,102.5L542.3,102.3L541.5,102.1L541.2,100.8ZM546.3,96.9L548.3,96.7L550.6,97.9L550.6,98.7L547.9,98.8L546.8,97.7L546.3,96.9ZM521.5,90.9L521.6,90.1L524.3,90.0L525.2,90.5L525.4,90.9L525.6,93.3L524.2,93.5L521.5,90.9ZM529.1,98.5L531.6,96.6L534.3,98.4L532.0,101.2L529.1,98.5ZM537.1,86.9L537.4,85.9L538.3,86.3L539.0,87.2L542.9,86.4L544.5,87.2L545.6,90.1L544.9,90.1L543.5,89.4L543.2,90.2L543.1,90.8L540.9,91.1L540.5,90.1L540.1,89.0L539.5,89.1L538.9,89.1L537.1,86.9ZM530.4,88.2L534.2,86.5L535.3,88.8L537.1,89.9L537.6,90.7L539.1,95.0L538.5,95.1L536.0,94.7L534.5,94.2L533.4,93.4L532.5,90.8L530.4,88.2ZM555.9,93.0L556.5,93.0L557.8,93.6L559.9,95.7L559.3,96.0L558.9,95.9L555.9,93.0ZM546.0,86.2L547.3,85.4L550.1,86.9L550.3,87.4L549.9,87.8L549.7,88.0L546.0,86.2ZM631.2,141.2L631.8,140.6L632.4,140.5L633.5,140.6L634.8,140.8L639.7,143.1L637.5,145.1L635.1,145.7L631.9,143.2L631.3,142.2L631.2,141.2ZM629.7,125.9L630.3,125.4L633.3,126.0L634.3,126.4L634.5,126.9L633.4,127.7L629.8,126.6L629.7,126.2L629.7,125.9ZM824.2,174.6L827.2,172.5L829.1,175.6L827.9,177.8L827.5,178.0L826.0,177.5L824.3,175.5L824.2,174.6ZM828.9,185.9L831.0,183.5L830.5,177.0L833.2,174.3L836.7,173.9L841.2,175.0L844.6,178.5L840.3,181.4L832.3,183.2L829.8,186.6L828.9,185.9ZM796.0,164.2L799.3,166.3L800.0,168.7L800.0,169.2L799.5,170.0L798.4,170.5L796.0,164.2ZM806.2,185.2L811.5,186.7L811.8,187.8L811.7,188.3L806.2,185.2ZM966.7,434.3L972.6,433.7L972.1,434.8L972.8,438.1L971.7,441.2L969.3,439.5L968.4,439.2L967.7,441.1L967.4,441.3L966.7,434.3ZM963.1,125.5L963.5,124.7L968.1,121.4L969.6,122.1L971.5,124.7L970.8,126.0L967.9,127.8L964.4,128.8L963.5,127.9L963.1,126.4L963.1,125.5ZM1085.8,249.0L1087.0,242.1L1091.4,245.0L1090.5,247.5L1090.2,250.4L1090.4,253.8L1090.8,255.7L1089.7,255.3L1089.6,253.8L1088.4,251.3L1085.8,249.0ZM1142.4,271.0L1142.6,270.3L1142.6,269.2L1144.3,267.5L1144.8,267.2L1145.5,268.1L1146.5,268.7L1152.7,268.8L1154.6,270.2L1149.4,270.9L1144.9,270.3L1142.4,271.0ZM1144.4,404.5L1145.1,404.1L1145.7,404.9L1146.3,406.6L1147.8,407.7L1148.0,408.2L1147.9,409.4L1146.8,409.8L1145.9,408.9L1144.4,404.5ZM1141.2,382.4L1141.4,380.5L1141.9,380.0L1142.3,379.9L1143.9,383.0L1143.6,383.2L1142.0,383.5L1141.5,383.3L1141.2,382.4ZM1139.9,394.6L1141.9,390.3L1141.6,388.8L1140.1,385.8L1140.1,384.2L1140.6,383.4L1143.8,387.2L1144.6,389.7L1144.9,391.7L1143.9,393.2L1143.7,394.2L1144.0,395.4L1144.0,396.2L1143.1,396.7L1142.4,396.7L1139.9,394.6ZM1147.7,417.5L1148.2,417.0L1148.5,416.9L1148.9,419.9L1148.4,420.0L1148.2,419.9L1148.2,418.6L1147.7,417.5ZM1134.8,386.2L1135.2,385.3L1136.0,385.0L1136.8,385.6L1137.0,386.0L1136.5,386.7L1134.8,386.2ZM1151.8,437.4L1151.9,437.1L1152.5,437.4L1152.8,438.4L1152.4,438.7L1152.1,438.7L1151.8,437.4ZM1151.7,457.5L1152.7,456.3L1152.5,453.4L1152.4,451.4L1152.6,450.5L1153.0,450.2L1153.4,455.0L1153.2,457.6L1151.7,457.5ZM1145.9,483.6L1147.4,474.9L1147.6,474.5L1149.3,473.1L1148.1,485.7L1147.4,487.4L1146.7,488.0L1145.9,483.6ZM1135.6,511.9L1137.4,503.1L1136.6,502.4L1136.2,501.0L1136.6,500.8L1138.5,501.5L1139.1,501.1L1140.5,499.5L1140.9,495.1L1142.3,493.4L1144.0,495.7L1140.6,500.7L1139.9,504.2L1140.0,505.7L1139.2,507.0L1137.9,507.7L1138.2,515.8L1137.5,516.8L1137.0,519.7L1135.6,511.9ZM1140.2,528.7L1141.6,526.7L1142.4,526.7L1142.7,526.9L1141.7,528.9L1141.7,529.5L1140.8,529.7L1140.3,529.0L1140.2,528.7ZM1129.3,523.9L1130.2,523.3L1132.1,523.2L1133.8,521.6L1131.3,530.1L1130.9,535.4L1132.3,537.8L1130.6,537.7L1129.8,536.9L1129.5,535.9L1130.1,533.0L1130.2,531.6L1129.3,523.9ZM708.9,217.7L710.4,217.3L710.8,214.5L716.7,215.6L715.0,220.5L712.3,220.2L711.9,220.1L708.9,217.7ZM583.4,134.4L584.7,134.7L587.5,137.6L585.1,136.9L584.6,136.7L583.4,134.4ZM597.0,122.5L597.6,121.7L598.1,121.4L601.5,122.8L600.0,123.4L597.0,122.5ZM526.0,211.4L528.0,207.8L529.1,206.9L530.2,206.8L532.8,207.4L533.1,207.7L534.1,211.8L533.9,212.6L533.6,213.3L527.6,212.8L526.2,212.3L526.0,211.4ZM551.7,234.2L556.4,230.8L559.3,233.7L555.8,235.7L551.7,234.2ZM562.1,229.1L562.4,228.6L565.5,226.4L566.4,229.4L565.7,231.5L565.4,232.2L565.0,232.2L562.7,230.9L562.1,229.9L562.1,229.1ZM584.6,196.9L585.8,196.0L586.1,196.7L586.5,196.8L586.6,196.1L586.7,195.5L587.2,195.4L587.8,195.5L587.4,197.9L587.2,198.0L586.7,197.9L586.1,199.1L584.6,196.9ZM455.2,227.1L456.3,221.0L460.3,220.0L462.1,230.4L461.1,232.8L460.4,233.6L459.8,233.4L459.1,233.5L457.3,232.2L456.6,231.0L457.1,230.3L457.4,229.1L456.3,227.3L455.2,227.1ZM102.3,168.1L107.7,168.5L108.9,168.1L110.3,167.7L113.3,171.5L118.8,172.6L113.4,172.2L113.4,175.0L113.7,175.8L114.8,177.1L117.4,176.3L119.7,175.3L119.9,175.8L120.4,176.4L119.9,183.2L121.7,187.0L120.1,190.3L115.2,191.4L112.4,193.2L102.3,168.1ZM36.0,364.6L36.2,361.7L41.7,360.0L42.5,359.2L43.7,357.8L43.8,355.5L42.8,354.5L42.6,353.7L42.9,349.9L42.1,348.5L40.8,347.4L40.7,346.6L41.1,345.8L45.4,347.0L49.3,348.4L55.0,351.2L55.9,350.2L56.5,349.2L57.5,349.3L58.4,348.7L60.7,356.1L60.1,357.8L60.7,358.3L61.8,359.7L61.4,361.4L60.2,362.4L60.3,364.2L60.7,364.7L58.5,372.4L62.0,374.9L62.8,376.7L63.9,376.8L64.8,377.3L66.8,381.3L61.6,382.8L57.4,378.9L57.3,376.3L56.8,375.2L55.9,374.6L49.8,373.9L48.8,372.0L47.4,370.6L44.8,369.2L41.3,369.2L38.6,368.4L37.1,367.2L36.2,365.8L36.0,364.6Z"/>
</svg>
